PathFileType	4	(X/Y/Z)	./resultDataOpenSim/trcMotMarkerGrf/sub06/qtm-03-01.trc
DataRate	CameraRate	NumFrames	NumMarkers	Units	OrigDataRate	OrigDataStartFrame	OrigNumFrames
250.000000	250.000000	6	24	m	250.000000	373	496
Frame#	Time	L.Toe.Tip			R.Toe.Tip			L.Ankle.Lat			R.Ankle.Lat			L.Ankle.Med			R.Ankle.Med			L.Heel			R.Heel			L.Knee.Lat			R.Knee.Lat			L.Knee.Med			R.Knee.Med			L.Thigh.Upper			R.Thigh.Upper			L.ASIS			R.ASIS			V.Sacral			L.Acromium			R.Acromium			C7			L.Elbow			R.Elbow			L.Wrist.Lat			R.Wrist.Lat
		X1	Y1	Z1	X2	Y2	Z2	X3	Y3	Z3	X4	Y4	Z4	X5	Y5	Z5	X6	Y6	Z6	X7	Y7	Z7	X8	Y8	Z8	X9	Y9	Z9	X10	Y10	Z10	X11	Y11	Z11	X12	Y12	Z12	X13	Y13	Z13	X14	Y14	Z14	X15	Y15	Z15	X16	Y16	Z16	X17	Y17	Z17	X18	Y18	Z18	X19	Y19	Z19	X20	Y20	Z20	X21	Y21	Z21	X22	Y22	Z22	X23	Y23	Z23	X24	Y24	Z24

373	1.488	1.4636891	0.10041424	-0.040550659	0.91673595	0.03539524	0.10337625	1.3380761	0.11312145	-0.067268615	0.78096057	0.063670395	0.12806975	1.336644	0.12800078	0.016709207	0.80368666	0.087365463	0.042590303	1.2707322	0.070564222	-0.024339883	0.72534999	0.046386468	0.067804935	1.3100518	0.48997955	-0.076088717	0.91937201	0.4291306	0.17342951	1.3028347	0.47880145	0.045431666	0.89187368	0.43331514	0.043357817	1.0833207	0.80642883	-0.10234568	0.99802224	0.78407807	0.2352163	1.1373298	0.84977184	-0.0417885	1.1032989	0.84009751	0.20455462	0.9325035	0.9117877	0.063678669	1.0237658	1.3215479	-0.11585524	1.0402282	1.3188483	0.24559149	0.95356501	1.352292	0.068030925	0.91150854	1.0346994	-0.15618419	1.0724191	1.0024635	0.34557643	0.9538683	0.80974867	-0.23519884	1.3146467	1.0079939	0.27366884
374	1.492	1.4794398	0.10283826	-0.039714434	0.91690521	0.035284707	0.1034366	1.3532428	0.11186819	-0.066301325	0.78124409	0.064138917	0.12770302	1.3517956	0.12682288	0.017667747	0.80435444	0.08767692	0.04224115	1.2873329	0.067462592	-0.023146217	0.72568461	0.047096873	0.067286883	1.3147385	0.48702092	-0.075263069	0.9228729	0.42844722	0.17309205	1.3079688	0.4760251	0.046400609	0.89569108	0.43287552	0.043060496	1.0897799	0.80486399	-0.10238266	1.0057283	0.78215817	0.23403069	1.1438518	0.84800299	-0.041636423	1.1090442	0.83836492	0.20454676	0.93835693	0.9104667	0.063071082	1.0298448	1.3198945	-0.11611515	1.0459299	1.3173411	0.24549335	0.95936962	1.3508314	0.067767932	0.91675277	1.033583	-0.15598355	1.0792266	1.0010094	0.3453445	0.95700893	0.80850378	-0.23562868	1.3210302	1.0077107	0.27256065
375	1.496	1.4947987	0.10533132	-0.038992851	0.91706259	0.035209209	0.10345257	1.3679962	0.11085117	-0.065352502	0.78153339	0.064654776	0.12734064	1.3666168	0.12608814	0.018484561	0.80505629	0.088074059	0.041906278	1.3035579	0.064744836	-0.021981838	0.72603554	0.047895319	0.066769751	1.3194083	0.48394821	-0.074368201	0.92646054	0.42776704	0.17276369	1.3130667	0.47319074	0.047445191	0.89967235	0.43241701	0.042727454	1.0962372	0.80326328	-0.10241247	1.0115512	0.78073777	0.23325612	1.1504065	0.84624192	-0.041535682	1.114847	0.83666181	0.20456288	0.94442645	0.90907071	0.062446303	1.0359687	1.318249	-0.1163949	1.0516395	1.3158429	0.24536828	0.96520608	1.3493581	0.067463171	0.9220705	1.0324507	-0.15579479	1.085962	0.99955234	0.34509226	0.96031339	0.80725975	-0.23604582	1.3273848	1.0073079	0.27151443
376	1.5	1.5096799	0.10785795	-0.038486837	0.91719281	0.035202637	0.10340587	1.382274	0.11003878	-0.064407091	0.78184363	0.065209108	0.12698815	1.3812096	0.12551059	0.019256944	0.80580836	0.088533531	0.041547008	1.3193571	0.062369547	-0.020841953	0.72641946	0.048766952	0.066199754	1.3241051	0.48082092	-0.073410151	0.93014189	0.4270957	0.17244613	1.3181515	0.47033225	0.048551928	0.9038247	0.43193943	0.042336784	1.1026911	0.80162234	-0.10243832	1.0158875	0.77972001	0.23281466	1.1569837	0.8444808	-0.041480531	1.1207103	0.83498963	0.20462042	0.95140746	0.9075795	0.06190555	1.0421485	1.3166117	-0.11669278	1.057365	1.3143607	0.24521663	0.97108099	1.3478694	0.067122916	0.92746576	1.0313039	-0.15561996	1.0926262	0.99809799	0.34481601	0.9637854	0.80602045	-0.23645089	1.3337117	1.0067858	0.27052812
377	1.504	1.5239271	0.1103863	-0.038238105	0.91731052	0.035225842	0.10333044	1.3960169	0.10940132	-0.063477651	0.78222374	0.065791468	0.12665789	1.3953656	0.12500554	0.02003874	0.80661843	0.089009116	0.041103389	1.3346636	0.060272257	-0.019655283	0.72685109	0.04970687	0.065518428	1.3288615	0.47769641	-0.072385852	0.93392463	0.42643942	0.17213934	1.3232387	0.46748643	0.049706462	0.90812746	0.43145092	0.041893795	1.1091469	0.79994137	-0.10246871	1.0199387	0.77878868	0.23254195	1.1635832	0.84272749	-0.041457454	1.1266548	0.83333093	0.20471857	0.95940109	0.9060636	0.06156058	1.0483964	1.3149812	-0.11701338	1.0631089	1.3128983	0.2450355	0.9769987	1.3463822	0.066749335	0.93294142	1.0301424	-0.15546737	1.0992166	0.99665054	0.34451255	0.96742675	0.80478282	-0.23684319	1.340007	1.0061434	0.26959062
378	1.508	1.5374075	0.11289853	-0.038170295	0.91742916	0.035227567	0.10326825	1.4091753	0.10891389	-0.062592738	0.78270121	0.066406192	0.12634704	1.4088041	0.12459417	0.020811624	0.80746551	0.08946813	0.040560017	1.3493658	0.058373594	-0.018315632	0.72731709	0.050737639	0.064739286	1.3336907	0.47462923	-0.071291097	0.93781246	0.42579992	0.17184001	1.3283342	0.46468964	0.050897346	0.91257089	0.43095548	0.041412746	1.1156158	0.79822588	-0.10252458	1.0250558	0.77758039	0.23234822	1.1702113	0.84099784	-0.041461211	1.1327095	0.83164577	0.20483574	0.96740055	0.9045794	0.061222865	1.0547049	1.3133635	-0.11735839	1.0688709	1.3114602	0.244821	0.98294532	1.3449258	0.066340033	0.93849346	1.0289687	-0.15533895	1.1057317	0.99521197	0.34418296	0.97123989	0.80353809	-0.237218	1.3462671	1.0053827	0.26869205
